<?xml version="1.0" encoding="UTF-8"?>
<svg xmlns="http://www.w3.org/2000/svg" viewBox="0 0 2070.01 1368.56">
  <g id="a" data-name="Слой 3">
    <g>
      <path d="M97.4,1302.95s56.12-140.59,103.38-187.45c47.26-46.86,70.89-117.16,100.43-175.74,29.54-58.58,73.85-187.46,115.2-199.17,41.35-11.72,85.66,93.73,127.02,128.88,41.35,35.15,138.83-105.44,186.09-128.88,47.26-23.43,106.34-87.87,106.34-87.87,0,0,50.22-187.46,59.08-210.89,8.86-23.43,73.85-111.3,73.85-111.3,0,0,50.22,128.87,64.98,158.17,14.77,29.29,106.34,328.05,106.34,328.05,0,0,20.68-46.86,35.44-52.72,14.77-5.86,62.03,41.01,62.03,41.01l41.36,164.02s65.23-242.32,97.48-298.76c50.22-87.87,79.75-64.44,79.75-64.44,0,0,47.26,93.73,79.75,146.45,32.49,52.72,141.78,193.31,165.41,269.47,23.63,76.15,100.43,111.3,138.83,128.87,38.4,17.57,177.23,152.31,177.23,152.31H97.4Z" style="fill: #897a6e;"/>
      <path d="M991.22,647.44c-4.43,29.29,19.2,128.86,19.2,128.86l85.65,158.14v76.94l14.68,291.57h214.21s-94.51-240.98-107.8-291.57c-13.29-50.58-77.05-194.64-77.05-194.64l-92.77-295.23-59.07,8.79-14.77,49.79,17.72,67.36Z" style="fill: #75685f;"/>
      <polygon points="969.07 319.45 896.71 427.8 864.23 544.95 884.9 533.23 880.47 585.95 876.04 665.02 920.34 524.45 918.86 556.66 938.06 527.37 951.35 577.16 988.27 530.3 1031.09 629.87 1025.19 527.37 1048.81 583.02 1082.78 638.66 1038.48 483.45 969.07 319.45" style="fill: #bcdee2;"/>
      <polygon points="1029.62 1021.77 989.75 887.59 949.88 816.74 973.5 996.74 973.5 1080.87 912.96 1148.23 896.71 1302.95 1045.86 1302.95 1057.4 1059.85 1029.62 1021.77" style="fill: #75685f;"/>
      <polygon points="1237.58 805.03 1220.11 846.59 1237.58 878.8 1220.11 943.23 1257.03 1072.08 1278.94 969.05 1237.58 805.03" style="fill: #75685f;"/>
      <path d="M1456.17,605.86l-16.03,76.73,31.01,38.07,23.63,46.86-14.35,82-27,102.5h132.9s84.17,104.38,79.74,107.83c-4.43,3.45-31.01,44.45-23.63,44.45s51.77,23.43,54.68,20.5c2.91-2.93-97.14,178.16-97.14,178.16h417.41s-76.66-122.51-137.2-157.66c-60.54-35.14-141.9-74.27-151.43-123.53-9.53-49.26-89.27-149.95-135.05-216.75-45.78-66.8-109.71-185.12-137.55-199.17Z" style="fill: #75685f;"/>
      <path d="M97.4,1302.95s21.74-118.29,52.1-140.08c30.37-21.79,40.08-68.22,69.52-90.79,29.43-22.57,121.32-219.33,121.32-219.33,0,0,27.71,25.56,30.67,59.48,2.95,33.92-6.44,65.08-9.86,109.54-3.43,44.46,33.49,79.6,39.4,105.96,5.91,26.36-98.94,175.23-98.94,175.23H97.4Z" style="fill: #a89588;"/>
      <polygon points="726.89 954.4 775.62 899.3 814.02 805.03 858.32 740.59 907.05 665.02 896.71 809.71 856.84 872.94 856.84 996.74 883.42 1011.38 849.46 1265.37 684.96 1059.85 726.89 954.4" style="fill: #a89588;"/>
      <polygon points="644.01 938.55 676.69 852.76 743.14 852.76 799.49 758.73 729.85 805.03 676.69 805.03 592.51 912.24 644.01 938.55" style="fill: #a89588;"/>
      <path d="M416.42,740.59c32.12,10.8,66.82,24,81.59,41.57,14.77,17.57,28,77.43,61.99,92.9,33.99,15.46,121.42,59.39,124.96,79.89,3.54,20.5-14.18,41.8-14.18,41.8,13.29,22.63,85.65,60.7,113.71,104.63,28.06,43.93,87.12,201.58,87.12,201.58H499.48s217.07-55.16,237.75-90.3c20.67-35.14-7.64-84.93-14.9-96.64-7.25-11.71-118-65.48-125.39-94.24-7.38-28.76,6.68-37.54,6.68-37.54,0,0-68.7-43.93-77.56-61.5-8.86-17.57-19.69-96.42-34.21-118.5-14.52-22.07-75.44-63.64-75.44-63.64Z" style="fill: #75685f;"/>
      <polygon points="1376.41 670.29 1278.94 912.24 1257.03 1072.08 1249.52 1124.8 1324.96 1302.95 1376.41 1302.95 1341.2 1151.16 1376.41 1124.8 1404.7 938.55 1342.68 996.74 1379.6 899.3 1412.08 852.76 1382.55 805.03 1376.41 670.29" style="fill: #a89588;"/>
      <polygon points="961.43 442.24 988.27 530.3 1031.09 629.87 1034.94 563.29 1082.78 638.66 1038.48 483.45 970.62 312.95 961.43 442.24" style="fill: #9fbbbc;"/>
    </g>
    <g>
      <path d="M183.34,349.64c-5.48,6.5-26.16-14.64-50.91-11.08-2.93,.42-16.92,2.43-19.56,11.58-1.47,5.11,1.07,11.52,4.88,14.92,2.63,2.34,6.64,2.37,14.24,3.01,3.11,.26,6.08,.31,7.81,2.56,1.11,1.45,.49,2.54,1.47,4.15,2.04,3.34,6.69,4.75,11.3,5.27,8.7,.99,23.02,2.62,34.93-4.19,1.86-1.06,5.47-3.37,9.84-2.66,2.63,.43,2.61,1.47,6.6,2.87,4.6,1.61,8.64,1.6,11.45,1.62,9.63,.07,11.98-3.13,18.52-3.18,7.56-.06,11.28,4.86,18.38,7.53,25.03,9.38,61.13,7.38,72.01-4.61,1.46-1.61,1.75-2.87,3.58-4.34,5.84-4.67,12.03-3.57,28.33-4.24,10.88-.44,13.57-1.26,16-3.32,4.79-4.05,5.62-10.39,5.74-11.39,1.34-11.4-8.59-20.69-12.44-24.29-7.37-6.89-15.58-10.53-29.77-14.27-12.42-3.27-45.12-11.53-76.28-4.27-8.47,1.98-15.08,3.6-21.96,8.98-7.09,5.56-7.57,9.74-13.71,11.97-8.68,3.16-11.5-3.97-21.49-1.29-7.33,1.97-14.79,8.2-17.96,15.93-.84,2.05-.5,2.08-1.03,2.71Z" style="fill: #e9f4f6;"/>
      <path d="M433.01,359.34c-18.01,14.62-86.85,5.59-86.47,1.45,.22-2.39,23.03,1.13,27.28-9.31,1.39-3.42,.67-8.06-.89-11.35-2.1-4.4-5.7-6.33-8.35-7.75-1.28-.69-6.79-3.5-14.67-3.02-8.41,.51-11.08,4.21-14.55,2.18-3.38-1.97-1.45-6.21-5.16-11.38-5.87-8.17-17.41-8.07-18.22-8.05-6.3,.15-11.48,3.07-13.91,4.44-1.33,.75-3.33,2.44-7.09,4.8-2.94,1.84-4.4,2.77-5.22,3-4.66,1.33-8.25-2.78-13.94-5.67,0,0-7.82-3.97-17.44-3.36-12.37,.78-20.9,9.3-23.36,11.77-5.26,5.26-8.12,10.83-9.6,14.29-1.25-1.76-3.85-4.9-8.14-6.81-7.44-3.31-14.4-.43-16.21,.29-9.02,3.6-12.31,12.02-13.29,11.36-1.07-.72,1.94-11.25,9.82-19.46,8.34-8.7,18.17-10.65,20.54-11.06,9-1.56,16.21,.71,19.52,1.99,.85-2.47,7.22-20.03,23.01-25.12,7.05-2.27,13.45-1.24,14.38-1.08,7.91,1.36,13.21,5.59,15.47,7.63,.47-.46,4.35-4.11,9.86-3.19,4.93,.82,7.5,4.69,7.92,5.34,1.68-3.29,4.61-8.11,9.47-12.64,3.32-3.09,11.04-10.07,22.81-10.88,12.8-.89,22.01,6.09,24.89,8.5,13.28,11.13,14.19,27.75,14.29,30.38,1.28-1.56,4.33-4.87,9.35-6.58,2.74-.93,8.23-2.1,14.03,.57,7.2,3.31,10.02,10.71,10.25,11.35,2.12,5.81,.02,8.83,2.32,10.7,3.08,2.5,7.4-2.53,15.21-.75,1.38,.31,4.61,1.09,7.58,3.84,.53,.49,6.14,5.84,5.25,13.08-.68,5.56-5.02,9.09-6.75,10.5Z" style="fill: #fff;"/>
      <path d="M369.25,350.15c-10.43-3.73-9.43-6.57-17.69-9.09-21.1-6.44-35.33,13.82-54.65,7.01-6.11-2.15-10.28-6.15-12.55-8.68-1.76,2.35-14.65,19.06-35.21,18.84-9.68-.1-17.08-3.92-20.98-6.37-6.34,9.63-17.5,13.89-27.28,10.73-11.72-3.79-15.47-16.29-15.76-17.32-.27,.55-.53,1.1-.76,1.66-.84,2.05-.5,2.08-1.03,2.71-5.48,6.5-26.16-14.64-50.91-11.08-2.93,.42-16.92,2.43-19.56,11.58-1.47,5.11,1.07,11.52,4.88,14.92,2.63,2.34,6.64,2.37,14.24,3.01,3.11,.26,6.08,.31,7.81,2.56,1.11,1.45,.49,2.54,1.47,4.15,2.04,3.34,6.69,4.75,11.3,5.27,8.7,.99,23.02,2.62,34.93-4.19,1.86-1.06,5.47-3.37,9.84-2.66,2.63,.43,2.61,1.47,6.6,2.87,4.6,1.61,8.64,1.6,11.45,1.62,9.63,.07,11.98-3.13,18.52-3.18,7.56-.06,11.28,4.86,18.38,7.53,25.03,9.38,61.13,7.38,72.01-4.61,1.46-1.61,1.75-2.87,3.58-4.34,8.77-7.02,20.86-5.37,28.33-4.24,14.82,2.24,37.24,5.45,58.69,.69,0,0,20.29-4.36,24.24-14.51,2.03-5.22,.99-9.63,.99-9.63-.39-1.67-1.03-2.95-1.51-3.76-.34,.81-4.67,10.67-14.93,12.54-7.84,1.43-13.77-2.8-14.95-3.69-9.77,2.77-24.25,5.09-39.49-.35Z" style="fill: #ceeaf0;"/>
      <path d="M342.23,347.26c6.8-2.05,13.48,.23,15.41,.88,8.04,2.74,12.94,8.69,14.87,7.05,.79-.67,.26-1.89,.49-4.45,0,0,.5-5.68,4.62-10.36,4.48-5.1,12.57-6.56,19.05-4.09,7.28,2.79,10.29,9.71,11.23,11.88,5.78,13.31-2.35,26.38-2.86,27.18-.91,1.41-4.33,6.42-11.03,9.96-3,1.59-7.65,3.41-40.11,.66-9.45-.8-14.18-1.2-17.69-1.72-5.88-.88-8.04-1.52-12.5-1.48-7.09,.05-7.94,1.71-13.28,1.67-1.93-.01-14.9-.13-17.86-8.1-1.94-5.23,1.09-12.06,5.43-15.41,3.21-2.48,6.68-2.72,9.46-2.88,8.61-.48,10.19,3.86,15.84,3.32,8.34-.79,8.5-10.96,18.94-14.1Z" style="fill: #fff;"/>
      <path d="M202.74,356.63c-.56,3.56-6.7,4.85-7.27,4.97-4.37,.88-6.64-.85-12.82-2.45-11-2.84-13.49-2.57-15.38-1.77-2.46,1.03-2.35,2.04-5.24,3.04-1.2,.42-5.62,1.87-10.33-.3-1.38-.64-5.6-2.58-6.55-6.95-.63-2.87,.55-5.29,.85-5.87,1.31-2.63,3.47-3.75,4.94-4.52,.9-.47,2.93-1.49,5.71-1.43,1.94,.04,3.47,.59,4.38,1.01,.37-1.37,1.09-3.29,2.56-5.11,4.36-5.36,13.6-7.53,19.95-2.77,5.42,4.07,5.91,11.06,5.96,12.14,1.94,.13,5.79,.71,9.26,3.63,1.45,1.22,4.4,3.7,3.98,6.38Z" style="fill: #fff;"/>
      <path d="M199.62,350.93c-6,2.65-13.14,2.39-18-2.33-1.82,.78-5.58,2.08-10.34,1.51-3.66-.44-6.41-1.81-8.01-2.77-.53,.93-1.65,2.6-3.62,3.89-.57,.38-4.08,2.59-8.5,1.4-3.21-.86-5.09-3.04-5.75-3.88-.29,.95-.64,2.57-.25,4.41,.91,4.34,5.14,6.3,6.55,6.95,4.72,2.17,9.13,.72,10.33,.3,2.89-1,2.78-2.01,5.24-3.04,1.89-.8,4.38-1.07,15.38,1.77,6.18,1.6,8.45,3.33,12.82,2.45,.58-.12,6.71-1.41,7.27-4.97,.37-2.33-1.82-4.58-3.12-5.69Z" style="fill: #e9f4f6;"/>
      <path d="M408.74,350.5c-.57,1.52-6.5,16.44-22.08,20.55-13.4,3.53-23.95-3.59-25.65-4.78-7.93,8.75-26.16,12.46-35.24,4.72-1.15,.74-9.58,5.94-19.26,2.27-6.66-2.52-10.1-7.81-11.17-9.62-.85,.63-2.41,1.97-3.28,4.24-1.54,3.99,.2,7.8,.51,8.46,3.68,7.68,15.59,8.05,17.1,8.09,.33,0,.59,.01,.76,.01,5.34,.04,6.2-1.62,13.28-1.67,4.46-.03,6.63,.61,12.5,1.48,3.51,.52,8.24,.92,17.69,1.72,32.46,2.74,37.11,.92,40.11-.66,6.51-3.44,10.2-8.69,11.03-9.96,.99-1.51,6.13-9.7,4.74-20.19-.26-1.96-.69-3.56-1.04-4.65Z" style="fill: #ceeaf0;"/>
    </g>
    <g>
      <g>
        <path d="M1611.46,533.64c-9.28,.24-16.78,2.08-21.69,3.62,.11-2.33,.52-16.17-11.7-27.01-11.97-10.62-27.27-10.57-31.42-10.4-6.43,.26-12.14,2.54-23.57,6.93-8.67,3.33-15.66,6.67-20.52,9.15-4.49-5.75-11.45-13.64-21.3-21.36-7.85-6.15-13.8-10.81-22.98-13.79-14.93-4.83-30.42-2.44-39.28,2.6-8.35,4.75-13.23,12.2-13.75,13-1.8,2.75-2.93,4.9-3.71,6.54-1.8,3.84-1.99,4.36-2.19,4.47-1.28,.2-3.46-9.02-4.13-11.77-3.22-13.07-8.28-24.39-9.47-26.93-5.33-11.44-12.97-18.35-17.78-22.69-29.03-26.25-73.3-18.74-76.44-18.14-13.93,2.64-48.1,9.13-61.66,39.79-9.9,22.37-3.1,44.69-.63,51.75-.05,0-5.65,.68-5.7,.68-2.85,.34-5.7,.68-5.7,.68-7.24,.15-8.59-1.13-15.87-1.36-5.52-.17-11.63-.41-17.34,2.86-1.33,.76-7.55,4.32-8.98,10.47-1.42,6.09,3,9.8,.49,12.47-1.96,2.09-5.24,.43-10.72,1.72-5.3,1.24-10.74,4.9-13.65,9.89-3.39,5.82-2.46,11.97-1.17,20.44,.55,3.62,1.47,9.37,4.79,15.88,4.73,9.27,11.39,14.36,14.91,16.98,14.61,10.89,38.87,17.44,59.1,8.76,8.46-3.63,5.66-5.4,25.97-17.77,0,0,18.3-10.88,31.54-9.51,7.93,.82,7.17,4.7,14.84,5.29,14.25,1.1,20.77-11.29,30.83-8.68,6.48,1.68,4.64,7.15,13.28,11.87,9.57,5.23,20.96,3.52,28.54,2.38,10.66-1.6,17.96-5.42,19.53-6.27,8.33-4.48,9-7.73,13.74-9.7,11.18-4.64,25.12,7.82,35.11,10.54,47.73,12.99,115.35,7.22,134.84-12.47,2.35-2.37,2.93-4.89,6.38-7.1,15.15-9.71,36.74,8.58,52.84,.03,8.11-4.31,11.59-13.7,11.65-20.71,.01-1.6,.26-10.04-6.61-16.23-8.33-7.51-20.84-7.18-30.44-6.93Z" style="fill: #f2f7f8;"/>
        <path d="M1320.15,603.69c-27.12,9.97-53.13,22.56-93.02,22.32-45.93-.28-63.75-17.5-69.71-24.31-3.67-4.19-14.43-16.49-12.86-32.5,.3-3.1,2.31-18.98,14.7-24.19,7.15-3,14.08-.91,16.7,.05-.74-2.33-3.43-11.7,1.31-20.45,5.99-11.06,20.04-14.07,30.13-11.34,5.62,1.52,9.55,4.69,11.74,6.8-2.16-3.92-4.89-9.84-6.52-17.43-3.6-16.81,.65-30.46,2.35-35.66,7.89-24.25,27.16-37.02,34.32-41.76,41.06-27.2,87.34-11.19,90.03-10.2,9.65,3.52,39.96,14.57,53.29,46.11,6.62,15.66,6.47,30.26,5.72,38.57,.81-4.07,2.72-10.66,7.72-16.78,9.3-11.4,22.68-13.08,28.82-13.85,17.95-2.26,31.89,5.32,38.59,9.07,18.35,10.29,27.8,25.77,31.77,33.43,2.16-2.34,17.92-18.9,41.53-16.98,14.54,1.18,31.87,9.36,39.45,25.68,3,6.45,3.72,12.55,3.84,16.68,2.67-2.63,10.72-9.84,22.74-10.6,13.18-.83,26.79,6.36,32.68,18.04,1.02,2.03,3.19,6.47,3.04,12.42-.32,12.22-10.23,21.95-19,25.7-12.86,5.49-26.52-.47-30.08-1.91-41.03-16.55-177.9-14.16-279.27,23.11Zm200.63-.86s39.36-.92,56.66-18.41c.87-.88,1.51-1.8,2.13-2.69,1.04-1.49,2.11-3.04,4.29-4.44,7.81-5.01,17.45-2.63,26.78-.33,8.98,2.21,18.27,4.5,26.08,.35,7.88-4.19,11.47-13.32,11.52-20.51-.52-2.3-1.58-5.55-3.86-8.82-9.61-13.77-29.88-11.79-31.97-11.56-11.94,1.34-20.14,7.98-23.7,11.31-1.18-4.57-4.43-14.63-13.38-23.54-2.96-2.94-11.49-11.51-24.45-13.18-14.81-1.92-26.93,5.8-39.11,13.68-4.16,2.69-7.45,5.24-9.74,7.14-1.21-5.43-6.18-24.6-23.43-35.59-23.81-15.17-56.39,3.33-68.53,9.95-7.25,3.96-12.76,8.02-16.28,10.81,.1-3.9,.19-23.05-14.08-37.87-3.52-3.66-12-12.46-23.83-13.37-24.56-1.88-31.13,32.75-61.73,36.75-16.69,2.19-24.44-6.84-37.9,0-10.21,5.19-15.74,15.46-18.88,23.73-3.98-1.44-16.97-5.57-29.8,.65-3.69,1.79-10.35,5.01-13.31,12.59-2.02,5.16-1.41,9.98-.9,12.45-2.62,1.15-15.83,7.28-21.46,22.59-.73,2-4.82,13.11-1.06,23.55,6.75,18.77,34.55,23.45,42.55,24.8,37.3,6.27,52.57-12.88,132.62-22.97,0,0,1.79-.28,4.2-.51,10.81-1.03,30.02-.24,170.56,3.45Z" style="fill: #fff;"/>
        <path d="M1616.5,574.24c-3.63,.19-17,.44-28.31-8.35-4.01-3.11-6.93-6.72-8.84-9.08-6.15-7.59-5.87-10.49-10.31-15.75-6.78-8.04-15.49-10.85-17.68-11.52-9.79-3.01-18.08-.88-23.06,.47-13.16,3.54-21.71,11.62-25.73,16.05-5.92-5.44-24.95-21.56-54.03-23.7-23.85-1.76-41.82,6.81-49.22,10.89-4.08-3.71-10.44-8.24-18.5-8.7-12-.69-19.97,8.64-29.03,14.83-9.89,6.76-26.32,13.5-54.16,10.67-2.32,3.2-16.53,22.11-42.4,25.04-27.53,3.11-46.17-14.39-48.79-16.95-3.43,.61-8.85,2.02-14.56,5.63-3.39,2.14-8.98,5.59-11.64,11.48-4.98,11.01,1.81,23.18,3.5,26.19,10.63,19.04,35.47,23.25,43.4,24.59,35.55,6.02,68.31-8.93,98.6-10.2,4.72-.2,10.98-.46,19.22,.64,7.99,1.07,10.82,2.48,18.82,3.6,0,0,8.36,1.17,19.71,.78,21.61-.74,60.37-11.99,65.03-13.31,59.64-16.84,125.49,14.47,138.18-4.59,.8-1.2,2.49-4.57,6.38-7.1,8.09-5.26,13.97-1.58,26.17-4.28,3.4-.75,15.37-3.58,23.17-13.71,1.38-1.79,5.14-6.97,6.27-14.79,.66-4.57,.17-8.39-.33-10.85-.73,2.87-2.22,7.09-5.47,11.09-8.12,10.01-20.74,10.67-26.38,10.96Z" style="fill: #ceeaf0;"/>
      </g>
      <g>
        <path d="M1551.14,609.48c1.48,1.07,3.63-1.57,7.85-2.54,4.73-1.09,9.26-.49,11.46-.2,1.92,.25,6.61,.87,10.26,3.05,5.32,3.18,6.59,8.55,3.61,12.5-4.04,5.35-14.91,7.49-22.55,7.65-13.88,.29-16.56-5.94-30.67-6.12-11.52-.15-12.04,3.65-28.41,5.36-5.24,.55-24.86,2.59-36.69-3.99-1.92-1.07-9.24-5.49-7.02-9.94,1.53-3.07,7.23-5.41,12.42-5.93,4.41-.44,7.75,1.13,8.42-.2,.52-1.01-1.23-2.14-2.24-5.12-1.32-3.91-.22-7.59,.18-8.94,1.51-5.07,5.04-7.83,6.16-8.68,6.45-4.89,15.48-4.35,21.53-1.28,6.78,3.44,10.55,9.77,10.55,9.77,1.91,3.2,2.23,5.46,4.39,6.24,2.67,.96,3.53-2.01,9.58-3.09,5.25-.93,10.05,.33,10.85,.55,.16,.04,.28,.08,.37,.1,.98,.28,6.93,2.04,8.86,6.53,1.01,2.36,.09,3.54,1.1,4.27Z" style="fill: #ceeaf0;"/>
        <path d="M1393.88,617.76c-2.17-.64-5.33-1.63-9.23-3.06-1.93-.71-3.45-1.32-4.75-1.84-3.28-1.31-5.25-2.1-9-2.61-4.65-.63-7.37-.2-11.14,.41-2.45,.39-5.5,.88-9.82,1.18-17.6,1.2-35.61,2.45-41.99-6.97-3.8-5.61-2.87-14.12,.27-19.74,5.35-9.57,18.92-14.08,32.57-8.96,.85-3.98,2.6-9.3,6.44-14.39,8.82-11.71,25.68-18.23,39.44-12.98,5.14,1.96,8.65,5.11,10.55,7.08,3.4-5.26,11.15-15.62,24.75-21.68,17.75-7.9,34.12-3.43,43.15-.96,18.65,5.1,31.02,15.9,37.16,22.17,.62-.58,12.1-11.05,27.07-6.6,9.87,2.93,17.44,11.21,19.76,21.57,4.91-2.02,11.31-3.74,18.78-3.64,4.74,.06,15.02,.34,24.31,7.55,4,3.1,9.81,7.61,10.03,14.02,.34,9.78-12.44,17.71-19.53,19.96-7.53,2.39-15.85,2.74-18.22,2.79-4.61,.1-7.19-.31-9.45-.68-2.35-.37-4.38-.7-8.14-.42-4.45,.33-7.12,1.21-9.7,2.07-2.87,.95-5.84,1.93-11.19,2.13-4.94,.19-8.76-.39-11.84-.86-6.37-.97-9.71-2.24-12.39-3.27-2.6-.99-4.47-1.71-7.9-1.73-4.18-.03-6.57,1.03-9.11,2.15-2.66,1.18-5.41,2.39-10.33,2.28-2.96-.07-4.73-.58-6.61-1.12-2.06-.59-4.2-1.2-8.25-1.41-6.07-.32-10.8,.58-13.35,1.07-4.85,.92-7.22,2.05-9.96,3.36-2.51,1.2-5.36,2.55-10.59,4.02-2.46,.69-4.7,1.32-7.06,1.78-1.06,.21-4.22,.72-7.73,.75-5.17,.05-9.1-1.1-16.97-3.4Z" style="fill: #fff;"/>
        <path d="M1500.42,564.84c-3.71-3.37-9.21-7.79-16.51-11.79-3.38-1.85-15.29-8.39-27.98-9.45-24.2-2.03-43.11,16.51-47.05,20.54-12.25-9.62-26.79-10.04-34.14-3.07-3.76,3.57-8.43,11.73-6.1,17.26,1.29,3.06,5.44,7.05,4.17,9.16-2.91-2.06-9.25-6.1-17.8-6.13-1.67,0-15.91-.06-19.11,8.51-1.55,4.16-.14,9.37,2.59,12.72,7.62,9.35,26.58,5.46,27.68,5.22,0,0,7.59-1.65,14.69-1.68,2.09,0,4.14,.27,4.14,.27,6.21,.85,6.87,2.56,19.95,6.51,9.76,2.95,12.41,3.06,14.45,2.92,4.8-.32,7.47-1.97,10.81-1.07,2.48,.67,2.23,1.9,5.07,3.53,3.84,2.2,8.86,2.56,10,2.64,9.52,.69,17.28-3.97,18.32-4.6,5.65-3.49,5.31-6.69,10.88-7.81,2.75-.55,5.21-.25,6.75-.06,7.25,.9,8.74,4.16,17.1,7.08,3.51,1.22,6.87,1.91,8.82,2.2,16.53,2.46,25.9-9.78,47.28-9.91,10.84-.06,11.31,3.07,20.96,2.15,11.36-1.07,24.08-6.72,27.39-15.36,2.5-6.53-.74-13.79-9.07-18.45-6.6-3.7-12.41-4.95-21.56-5.17-6.76-.17-16.84,.37-28.85,4.03-1.55-3.04-4.9-8.47-11.21-12.08-14.63-8.37-30.77,1.34-31.65,1.89Z" style="fill: #f2f7f8;"/>
        <path d="M1473.07,585.87c1.48,1.07,3.63-1.57,7.85-2.54,4.73-1.09,9.26-.49,11.46-.2,1.92,.25,6.61,.87,10.26,3.05,5.32,3.18,6.59,8.55,3.61,12.5-4.04,5.35-14.91,7.49-22.55,7.65-13.88,.29-16.56-5.94-30.67-6.12-11.52-.15-12.04,3.65-28.41,5.36-5.24,.55-24.86,2.59-36.69-3.99-1.92-1.07-9.24-5.49-7.03-9.94,1.53-3.07,7.23-5.41,12.42-5.93,4.41-.44,7.75,1.13,8.42-.2,.52-1.01-1.23-2.14-2.24-5.12-1.32-3.91-.22-7.59,.18-8.94,1.51-5.07,5.04-7.83,6.16-8.68,6.45-4.89,15.48-4.35,21.53-1.28,6.78,3.44,10.55,9.77,10.55,9.77,1.9,3.2,2.23,5.46,4.39,6.24,2.67,.96,3.53-2.01,9.58-3.09,5.25-.93,10.05,.33,10.85,.55,.16,.04,.28,.08,.37,.1,.98,.28,6.93,2.04,8.86,6.53,1.01,2.36,.09,3.54,1.1,4.27Z" style="fill: #fff;"/>
        <path d="M1453.33,604.35c-1.29-.44-2.95-1.23-5.7-1.09-8.3,.43-17.64,2.7-24.27,3.47-8.39,.98-14.99-.12-15-.5,0-.45,9.16,.86,20.28-2.97,7.2-2.48,8.13-4.68,15.83-6.51,4.18-1,8.62-2.01,13.93-.87,7.23,1.55,7.28,5.2,12.62,5.92,8.16,1.1,10.11-7.13,20.52-8.31,8.43-.96,10,4.11,18.18,2.71,7.58-1.3,7.74-5.76,16.23-9.47,8.59-3.76,20.99-4.23,28.92,1.84,6.83,5.23,4.47,10.85,10.58,15.29,11.71,8.52,31.38-5.07,32.52-2.68,1.19,2.5-19.27,19.23-32.52,15.89-3.68-.93-7.01-3.46-12.72-2.96-2.12,.18-5.63,.88-8.16-1.23-1.05-.88-1.11-1.56-1.96-1.93-2.68-1.18-6.73,3.56-9.24,5.78-10.33,9.15-31.69,8.69-38.95,.35-1.44-1.65-2.44-3.74-4.8-4.19-3.8-.73-5.38,3.89-10.32,4.94-5.21,1.1-10.37-2.59-14.79-5.75-4.63-3.31-6.08-5.99-11.18-7.72Z" style="fill: #ceeaf0;"/>
      </g>
    </g>
    <g>
      <g>
        <path d="M664.76,697.21c-10.8,10.46-32.27,14.21-52.44,8.41-2.33,3.2-6.08,7.75-11.76,12.52-32.65,27.44-92.86,31.78-137.51,21.87-11.26-2.5-27.85-7.31-45.78-17.19-6.43,2.44-14.81,5.05-24.96,6.87-15.66,2.81-29.23,2.61-38.52,1.9-21.4,6.13-40.5,9.24-55.69,10.89-16.38,1.78-89.15,8.46-148.34-21.07-20.08-10.02-25.68-17.76-27.63-24.29-4.08-13.74,5.84-29.58,15.26-34.09,3.24-1.55,10.6-4.9,18.53-11.3,1.25-1.01,2.43-2.22,3.69-3.89,11.6-15.44-10.54-27.62-5.02-46.72,6.51-22.5,49.23-45.29,81.44-41,16.19,2.16,21.05,10.02,36.18,8.44,19.2-2.01,20.78-15.66,38.48-17.83,20.96-2.58,47.25,13.04,51.05,28.44,2.01,8.14-2.03,17.18-.4,17.44,1.23,.19,1.98-5.05,7.44-8.84,7.12-4.94,20.04-5.86,30.21-2.5,9.89,3.27,17.91,10.84,17.59,18.32-.37,8.75-12.02,14.79-11.01,15.54,1.05,.78,11.18-7.33,25.35-12.66,20.17-7.59,41.9-3.08,44.97-2.41,24.7,5.4,39.25,21.65,40.88,23.52,5.27,6.05,5.82,9.43,11.23,10.96,9.12,2.57,15.55-4.76,35.69-8.19,8.47-1.45,18.03-3.08,28.44-.11,14.84,4.23,21.16,14.56,21.69,15.45,4.77,8.12,.78,12.54,5.6,15.04,6.44,3.35,14.76-4.08,30.71-2.05,3.12,.4,10.4,1.19,15.65,4.96,10.39,7.46,9.13,23.75-1.04,33.58Z" style="fill: #e9f4f6;"/>
        <path d="M587.03,673.3c-10.25-4.04-27.96-11.02-49.11-13.3-35.38-3.81-44.69,9.39-73.7,4.5-24.86-4.19-26.39-15.29-49.98-22.15-17.43-5.06-44.91-7.23-87.8,7.6-5.24-4-15.28-10.49-30.28-13.77-25.76-5.63-58.75-.19-72,14.63-13.7,15.32,2.18,31.2-14.31,42.7-10.34,7.21-25.82,7.41-28.77,7.44-21.62,.28-33.9-10.79-39.87-7.44-5.03,2.81-2.46,14.09,4.12,22.64,24.42,31.72,108.25,31.25,152.76,26.34,24.5-2.7,43.8-7.5,55.69-10.89,9.29,.71,22.86,.91,38.52-1.9,10.15-1.82,18.53-4.43,24.96-6.87,17.94,9.88,34.52,14.69,45.78,17.19,44.65,9.91,104.85,5.57,137.51-21.87,5.68-4.77,9.43-9.32,11.76-12.52,6.46,1.81,16.3,3.62,27.69,2.17,5.41-.69,21.95-2.79,24.75-10.58,1.48-4.12-.99-9.55-5.7-11.16-5.34-1.82-10.33,2.37-17.67,4.09-15.8,3.71-29.59-7.09-54.36-16.85Z" style="fill: #ceeaf0;"/>
        <path d="M674.29,665.19c-1.41-1.42-7.19-6.95-17.73-9.36-9.42-2.16-17.41-.63-23.02,.44-6.16,1.18-10.89,2.95-13.95,4.29,.72-3.9,2.08-15.3-7.67-24.75-16.76-16.24-50.08-10.93-53.34-10.37-15.58,2.66-25.8,9.37-30.47,12.9-1.23-3.47-9.43-25.23-38.46-35.78-6.97-2.53-25.64-8.24-47.74-4.05-9.85,1.86-17.17,5.09-21.69,7.43,.35-11.42-8.87-21.47-22.25-24.81-15.66-3.9-29.24,3.34-30.48,4.02,.09-1.21,1.52-27.31-27.48-41.56-24.49-12.03-50.94-5.91-53.47-5.29-18.66,4.58-28.67,14.51-31.85,17.98-3.72-1.08-43.39-11.99-79.39,5.71-28.14,13.84-41.34,38.91-36.75,60.76,2.07,9.85,7.41,17.35,11.31,21.89-4.67,1.55-11.61,4.34-18.43,9.19-3.44,2.45-11.41,8.23-15.67,17.7-1.71,3.81-7.11,15.71,.94,27.87,7.94,11.99,24.58,17.62,25.54,16.84,.43-.35-2.25-2.08-5.21-5.39-1.62-1.81-9.17-10.64-8.37-22.18,.97-14.05,13.68-23.05,17.19-25.36,10.34-6.8,21.62-8.69,26.62-9.3-1.46-5.4-4.96-21.99,7.12-39.53,1.57-2.27,17.09-23.94,50.85-30.67,14.64-2.92,27.41-1.97,33.97-1.16,21.15,2.62,28.62,11.06,53.98,15.86,10.29,1.95,18.99,2.48,24.43,2.64,3.22,4.33,8.54,10.47,16.95,16.61,5.42,3.97,9.32,6.85,15.28,8.45,15.38,4.12,29.2-1.91,31.2-2.82,5.99-2.97,23.3-10.71,47.43-10.12,10.91,.27,31.04,2.43,48.71,13.88,15.3,9.91,20.93,21.7,22.92,26.76,2.8-2.16,19.55-14.68,44.01-13.62,4.92,.21,17.97,.92,29.2,8.44,14.64,9.81,14.69,23.52,14.65,25.83,2.4-2.22,8.3-7.02,17.98-8.95,11.81-2.35,28.18-.03,36.07,9.29,5.59,6.6,4.65,17.02-2.62,22.13-.6,.42-1.27,.81-1.99,1.17,.77-.21,1.54-.51,2.31-.84,3.36-1.44,13.05-5.58,15.74-13.88,2.9-8.95-4.4-16.33-6.37-18.31Z" style="fill: #fff;"/>
      </g>
      <path d="M272.36,712.2c20.05-.5,38.69-10.63,48.07-25.91,16.78,9.72,28.68,10.44,36.33,9.41,19.2-2.58,20.67-17.42,45.73-23.59,18.93-4.66,37.73-1.75,37.73-1.75,14.09,2.18,22.66,7.09,32.21,4.1,6.08-1.91,9.5-6.06,11.38-9.05-3.94-.37-6.81-1.19-8.59-1.81-8.18-2.82-14.04-8.14-17.8-12.58-7.27-5.07-20.51-12.81-39.81-17-31.81-6.9-58.62,.5-66.99,3.14-9.76,3.07-17.12,6.76-21.99,9.55,.09-2.42,0-5.83-.86-9.82-.53-2.46-3.18-14.83-13.35-23.68-13.66-11.89-39.25-15.99-60.19-11.11-23.59,5.49-33.96,20.48-37.37,25.41-13.41,19.39-10.65,43.49,5.51,61.03,5.96,6.47,22.43,24.35,50.02,23.67Z" style="fill: #e9f4f6;"/>
      <path d="M241.63,704.61c.09-.06,.17-.13,.26-.19-15.13-10.18-26.53-26.45-22.07-36.6,.64-1.46,2.7-6.14,8.23-8.09,5.78-2.03,9.72,.9,16.1,.91,16.05,.04,19.23-18.46,39.01-21.46,10.45-1.59,19.31,2.1,21.53,3.02,13.63,5.67,16.98,16.49,17.55,18.47,5.45-3.77,14.75-9.27,28.07-13.12,21.9-6.33,41.77-4.38,51.65-2.89,18.12,2.73,33.09,9.62,39.49,12.88,14.18,7.22,22.38,14.88,32.42,13.18,4.63-.78,7.88-3.27,9.93-5.3-3.94-.37-6.81-1.19-8.59-1.81-8.18-2.82-14.04-8.14-17.8-12.58-12.71-14.61-41.76-19.92-44.97-20.51-22.24-4.06-41.65,1.03-53.1,4.04-13.7,3.6-23.99,8.45-30.72,12.15,.09-2.42,0-5.83-.86-9.82-.53-2.46-3.2-14.82-13.35-23.68-13.17-11.49-38.48-16.16-60.19-11.11-23.59,5.49-33.96,20.48-37.37,25.41-20.39,29.47,4.44,59.75,5.51,61.03,3.19,3.81,9.32,10.02,19.29,16.08Z" style="fill: #fff;"/>
      <path d="M501.04,703.1c-.1-1.03-.26-4.47,2.91-7.48,3.91-3.71,9.96-4,12.1-4.1,6.88-.32,11.85,2.26,13.3,3.09-.06-1.35-.13-7.18,5.8-12.15,5.36-4.49,12.18-5.38,14.67-5.68,1.7-.2,14.5-1.58,21.46,4.58,3.96,3.51,4.52,8.13,4.64,9.15,.22,1.79,.03,3.3-.19,4.35,.49-.55,4.51-4.94,11.96-5.36,7.16-.41,11.84,3.17,12.97,4.03,6.7,5.11,4.97,12.24,4.76,13,4.99-1.12,10.38,.02,13.6,2.87,3.65,3.22,3.88,8.02,.42,11.61-.99,.64-2.48,1.56-4.4,2.56-1.05,.55-12.04,6.17-25.89,7.46-20.51,1.9-26.43-7.65-47.73-4.62-5.58,.79-4.05,1.29-10.56,2.31-4.12,.64-28.7,4.49-45.24-5.69-3.48-2.14-10.12-6.32-9.45-12.07,.48-4.13,4.69-8.55,11.23-9.88,7.13-1.46,12.92,1.61,13.65,2.01Z" style="fill: #fff;"/>
      <path d="M541.98,711.66c-11.13,1.97-18.43,6.9-21.88,9.61-.53-.72-5.79-7.55-15.65-8.1-6.35-.36-14.58,1.89-15.55,5.66-1,3.85,5.99,7.69,7.48,8.5,10.66,5.85,20.17,2.57,46.36,3.52,15.61,.57,19.42,2,32.15,1.02,18.4-1.42,22.81-5.36,24.4-7.63,.29-.41,2.03-2.97,1.25-6.1-1.46-5.9-10.51-8.25-11.49-8.49-1.22-.3-9.99-2.47-15.54,1.46-2.7,1.91-3.38,4.39-3.59,5.58-1.66-1.36-4.48-3.3-8.64-4.63-7.69-2.46-14.85-1.19-19.31-.4Z" style="fill: #e9f4f6;"/>
    </g>
    <g>
      <path d="M1614.83,308.21c15.5-5.52,29.69-5.64,36.17-5.65,13.92,0,25.24,2.42,32.8,4.59,3.22-5.88,8.85-14.4,18.36-22.52,5.33-4.55,27.64-23,61.09-21.94,35.61,1.12,56.48,23.47,59.99,27.38,17.12,19.02,28.63,51.73,14.09,72.73-30.61,44.21-170.28,27.15-184.13,25.46-6.56-.8-23.7-3.77-44.88,.73-17.56,3.73-20.39,8.8-34.63,12.53-27.86,7.3-68.23,1.32-76.94-18.59-4.8-10.98,.08-26.23,10.06-34.38,7.48-6.12,16.16-7.5,23.11-8.53,4.96-.73,8.73-.62,13.64-.47,6.47,.2,15.79,.97,26.95,3.62,5.17-7.76,18.9-25.9,44.31-34.95Z" style="fill: #fff;"/>
      <path d="M1826.72,400.82c-5.51,.27-11.1-.02-11.1-.02-3.4-.22-6.63-.6-10.1-1.01-9.98-1.67-19.86-3.33-29.75-4.99h-.17c-15.13,4.02-27.3,4.5-35.62,4.21-15.3-.55-18.69-3.79-32.72-2.84-11.96,.81-10.55,3.24-30.81,6.2-14.92,2.18-23.84,2.05-29.23,1.76-2.61-.14-4.95-.39-5.23-.42-8.87-.93-18.31-3.51-18.31-3.51-8.86-2.41-24.3,1.38-54.62,3.77-16.48,1.3-24.76,1.18-32.2-3.4-1.72-1.06-6.52-4.1-8.9-9.77-4.14-9.87,2.48-19.22,3.46-20.56,6.3-8.6,16.93-10.95,26.05-12.84,19.85-4.11,37.33-.19,47.89,3.27,1.25-3.63,8.58-23.59,31.01-33.23,16.35-7.03,31.9-4.77,37.3-3.92,10.41,1.64,18.24,5.24,22.99,7.87,11.58-7.01,28.86-15.2,51.07-18.6,12.93-1.98,30.47-4.67,49.64,2.53,5.4,2.03,17.14,6.6,26.29,17.84,6.34,7.78,8.81,15.53,9.87,20.21,2.45-4.54,9.65-16.3,25.13-23.6,2.99-1.41,20.56-9.31,41.4-3.71,15.07,4.05,23.52,12.93,25.35,14.94,5.81,6.35,8.43,12.76,9.66,16.68,9.62-5.39,21.13-5.8,29.89-1.13,5.15,2.75,13.29,9.37,11.68,15.37-2.88,10.79-36.18,15.63-56.82,14.5-4.59-.25-15.21-1.17-29.84,.32-2.91,.3-7.04,.8-11.96,1.67-23.28,4.13-36.87,11.72-51.29,12.44Z" style="fill: #e9f4f6;"/>
      <path d="M1805.53,404.04c-12.45-1.24-22.53-4.04-29.58-6.49h-.16c-25.71,5.92-58.34,10.93-96.1,10.78-17.45-.07-33.51-1.23-47.98-2.97-21.17,.71-36.61,1.55-47.47,2.24-13.22,.84-26.73,1.91-38.44-5.51-2.05-1.3-3.58-2.56-4.58-3.44,6.99-.06,17.91-.79,30.38-4.58,13.83-4.2,18.69-8.87,30.64-12.47,8.02-2.41,20.43-4.7,37.62-2.42,4.02,2.57,11.8,6.69,22.36,7.3,23.55,1.36,39.19-16.02,40.76-17.81,4.7,1.09,11.82,2.1,19.86,.43,9.91-2.05,13.1-6.48,25.27-11.37,5.47-2.2,13.36-5.36,23.59-5.95,16.62-.94,29.79,5.49,35.61,8.33,7.28,3.56,6.63,4.58,15.18,8.98,10.43,5.36,21.36,8.96,27.27,10.07,25.82,4.83,53.51-19.65,57.1-22.9,1.98,8.91,6.27,11.77,8.57,12.83,1.46,.67,3.99,1.49,20.31-.34,9.89-1.11,11.31-1.69,14.8-1.06,5.98,1.09,14.08,4.8,13.88,8.54-.36,6.75-27.73,13.25-44.44,12.82-1.91-.05-7.84-.29-16.04-.05-4.04,.12-8.66,.36-13.77,.82,0,0-6.31,.56-11.98,1.38-13.18,1.9-21.32,7.39-32.99,10.81-15.15,4.45-28.39,3.13-39.67,2Z" style="fill: #ceeaf0;"/>
    </g>
  </g>
  <g id="b" data-name="Слой 1">
    <g>
      <path d="M1055.54,1019.13s-157.68-29.64-247.51,46.61c-89.83,76.26-165.75-76.86-262.59,105.81-98.47-53.69-275.32,131.89-275.32,131.89l474.98-3.27,310.43-281.05Z" style="fill: #8e5b35;"/>
      <path d="M997.22,1105.92s184.23-84.87,325.31-29.89c141.08,54.99,132.78,124.32,303.74,86.07,170.95-38.25,209.13,139.85,209.13,139.85H992.24l4.98-196.04Z" style="fill: #8e5b35;"/>
      <polygon points="729.15 1006.15 710.24 1123.07 724.34 1122.05 756.65 1008.86 729.15 1006.15" style="fill: #e5724e;"/>
      <polygon points="708.89 1133.52 712.47 1097.31 732.63 1097.82 732.12 1128.64 708.89 1133.52" style="fill: #e2ddcf;"/>
      <path d="M804.49,846.24l-.41,47.96-48.85,123.01s-26.05,0-29.92-10.64c2.24-37.93,11.8-98.73,11.8-98.73l12.42-74.85,54.95,13.24Z" style="fill: #245777;"/>
      <path d="M794.52,995.14s-15.67,18.86-28.49,38.13c-12.82,19.26-15.26,41.14-15.26,41.14l-24.83,1.61s9.16-24.28,13.03-39.13c3.87-14.85,12.21-54.18,16.08-58.8,3.87-4.62,39.49,17.06,39.49,17.06Z" style="fill: #f58458;"/>
      <polygon points="724.94 1072.89 733.48 1041.4 763.03 1045.61 750.05 1069.52 724.94 1072.89" style="fill: #e2ddcf;"/>
      <path d="M751.16,837.41s9.77,18.86,23.2,28.9c13.43,10.03,45.19,29.9,47.22,54.18,2.03,24.28-14.86,75.45-23.41,78.66-8.55,3.21-47.42-19.06-47.42-21.07s16.89-32.11,14.45-43.54-71.64-21.27-80.19-61.81c-3.66-20.07,4.07-36.32,4.07-36.32l62.08,1Z" style="fill: #326993;"/>
      <path d="M803.47,827.78s19.13-1.81,17.91,20.47c-1.22,22.27,1.22,34.12-2.65,34.52-3.87,.4-5.5-4.62-4.88-13.45,.61-8.83,7.94-32.71-8.55-34.92-6.92-2.41-1.83-6.62-1.83-6.62Z" style="fill: #243825;"/>
      <path d="M954.85,730.25s20.37-21.88,22.69-36.08c2.32-14.21,1.66-35.92-10.43-45.07-3.31-2.29-3.81,.16,.33,7.51,4.14,7.35,3.31,20.57,3.31,20.57,0,0-10.15-24.94-14.24-23.84-7.71,2.06-7.3,35.57-3.64,47.81-4.88,5.42-9.77,14.05-9.77,14.05l11.75,15.05Z" style="fill: #e5724e;"/>
      <path d="M646.14,758.55s-21.98,40.33-18.52,56.59c3.46,16.25,25.04,47.36,55.56,37.53,30.53-9.83,32.16-47.56,32.16-47.56l-8.75-76.46s-40.3,.8-60.45,29.9Z" style="fill: #243825;"/>
      <path d="M633.72,779.22c-3.06,1.1-11.19,23.48-6.72,29.9,4.48,6.42,15.88,12.24,18.73,5.22,2.85-7.02,10.99-22.47,3.66-27.69-7.33-5.22-11.2-9.03-15.67-7.43Z" style="fill: #446646;"/>
      <path d="M644.31,800.29s29.31,21.27,58.41,28.5c-5.9,7.02-7.12,8.83-7.12,8.83,0,0-32.57-9.23-52.51-30.5-2.85-5.62,1.22-6.82,1.22-6.82Z" style="fill: #162316;"/>
      <path d="M644.31,785.84s29.31,21.27,58.41,28.5c-5.9,7.02-7.12,8.83-7.12,8.83,0,0-32.57-9.23-52.51-30.5-2.85-5.62,1.22-6.82,1.22-6.82Z" style="fill: #162316;"/>
      <path d="M829.32,751.73s20.35,60.4,21.98,87.89c1.63,27.49-5.29,30.9-5.29,30.9,0,0-5.29,1-4.27-6.02,1.02-7.02,5.7-24.88-3.26-57.19-8.96-32.31-13.64-41.74-14.25-42.94-.61-1.2,5.09-12.64,5.09-12.64Z" style="fill: #243825;"/>
      <path d="M822.15,572.94s24.58,62.76-14.81,88.64c-16.49-3.31-32.36-35.22-32.36-35.22,0,0-3.21-62.46,47.17-53.43Z" style="fill: #65150f;"/>
      <path d="M756.96,567.97s-7.79,1.2-31.14,21.82c-23.36,20.62-73.42,25.13-87.32,48.61,0,0,13.89-16.56,51.29-23.33-28.55,15.5-50.07,36.27-52.66,63.21-2.6,26.94,41.83,41.54,41.83,41.54l121.66-63.21-43.66-88.64Z" style="fill: #65150f;"/>
      <path d="M993.76,496.43s-8.72,36.09-19.17,77.77c-10.46,41.68-21.35,73.9-21.35,73.9,0,0-18.89,36.51-15.22,62.1,3.66,25.59,17.71,25.28,19.23,23.78,1.53-1.51-12.21-9.63-7.02-32.51,0,0,6.41,12.94,9.77,12.64,3.36-.3-5.8-18.36-2.44-30.1,3.36-11.74,8.24-28.59,10.69-33.71,2.44-5.12,46.71-95.72,54.65-123.11,7.94-19.87,7.94-27.09,7.94-27.09l-37.06-3.67Z" style="fill: #f58458;"/>
      <path d="M1241.41,469.31s7.8,18.87,17.72,27.6c9.92,8.74,39.69,26.91,99.94,26.21,1.42,11.7,2.13,23.06,2.13,23.06,0,0-53.33,10.83-96.92-8.91-43.59-19.74-59.18-52.23-59.18-52.23l36.32-15.73Z" style="fill: #f58458;"/>
      <path d="M1205.26,481.71s8.33,76.17,1.95,93.99c0,0,7.97,3.67,9.57-.87,1.59-4.54-1.06-73.2-4.61-93.46-.35-4.02-6.91,.35-6.91,.35Z" style="fill: #2f4731;"/>
      <path d="M1149.27,672.27s3.97,70.74-5.19,98.13c-9.16,27.39-12.52,68.93-18.32,68.93s-33.58-3.01-63.81-16.56c-6.41-44.55,25.65-95.12,25.65-95.12l-9.16-52.07,1.83-39.73,1.53-9.93,67.47,46.35Z" style="fill: #113534;"/>
      <path d="M1074.48,810.12s29-3.61,43.35,17.76c-10.68,37.02-36.63,75.55-36.94,114.08-24.42-9.03-34.5-32.81-34.5-32.81l23.81-101.74,4.27,2.71Z" style="fill: #e5724e;"/>
      <polygon points="1047.91 913.67 1086.08 925.1 1072.99 970.12 1046.08 932.33 1047.91 913.67" style="fill: #c9bfa6;"/>
      <path d="M1094.93,712.3l6.11,8.13s9.47,20.77-6.72,52.07c-16.18,31.3-36.64,99.03-40.91,118.29-4.28,19.26-4.58,40.03-4.58,40.03l-22.9,1.51s-8.24-52.07-2.14-99.03c6.11-46.96,23.81-65.02,18.62-80.67-5.19-15.65,23.81-71.64,52.51-40.33Z" style="fill: #f58458;"/>
      <path d="M994.79,615.68s-11.3,13.54,6.41,55.69c17.71,42.14,32.36,83.38,36.33,84.58,3.97,1.2,7.02-2.11,7.02-2.11,0,0,11.91-44.25,56.18-34.61-8.24-51.77-16.18-87.59-16.18-87.59,0,0-45.8-70.13-89.76-15.95Z" style="fill: #174242;"/>
      <path d="M1186,352.54s4.21-48.3-2.37-55.05c-6.59-6.75-11.85-9.35-30.29-9.09-18.44,.26-43.72,.78-43.72,.78l-1.32,72.97,77.7-9.61Z" style="fill: #426346;"/>
      <path d="M1108.93,335.12s41.89-6.02,71.09,8.48c29.21,14.51,58.64,76.79,75.4,105.14,0,0,6.34,11.83,4.98,14.51-1.36,2.68-51.17,26.57-56.15,24.78-4.98-1.79-6.11-14.73-6.11-14.73,0,0-19.25,177.25-41.66,199.57-22.42,22.32-48.68-10.27-53.89-15.63-5.21-5.36-64.08-85.72-110.26-37.06-3.62-7.81,13.36-37.05,16.3-47.77,2.94-10.72,31.47-55.36,32.15-81.03-4.08,10.05-8.6,15.63-8.6,15.63,0,0-34.41,0-45.28-6.92-2.49-37.05,28.07-129.47,73.13-134.61,45.06-5.13,48.91-30.36,48.91-30.36Z" style="fill: #619ad8;"/>
      <path d="M1110.81,386.47s11.6-1.05,18.32,15.95c16.18-13.39,23.81-47.71,19.23-60.95-4.58-13.24-31.44-12.19-32.82-11.59,5.04,15.05-4.73,56.59-4.73,56.59Z" style="fill: #467eb2;"/>
      <path d="M1067.91,368.1c-.15,.6,10.84,31.76,27.78,41.54-1.37-9.33,10.23-23.18,15.11-23.18-6.41-16.25-27.93-29.8-27.93-29.8l-14.96,11.44Z" style="fill: #467eb2;"/>
      <path d="M1207.28,397.56c-8.95,49.36-8.55,79.46-8.55,79.46l.3,1.78c.86,3.76,2.43,8.23,5.21,9.23,3.77,1.35,33.19-11.99,47.88-19.72-7.74-1.66-42.32-12.33-44.85-70.75Z" style="fill: #467eb2;"/>
      <path d="M1034.68,390.73c4.67,51.42-21.15,110.13-23.43,115.19,10.92,1.08,20.92,1.09,20.92,1.09,0,0,4.53-5.58,8.6-15.63-.68,25.67-29.21,70.31-32.15,81.03-2.94,10.72-19.92,39.96-16.3,47.77,8.67-9.14,17.79-13.73,26.92-15.12,.52-.91,1.05-1.85,1.6-2.83-24.42-12.44,11.4-76.65,29.31-101.54,17.91-24.88,8.14-111.97,8.14-111.97,0,0-1.63,2.01-23.61,2.01Z" style="fill: #467eb2;"/>
      <path d="M1036.25,331.78l-1.81,169.2s9.06-6.47,16.3-45.54c7.25-39.06,9.06-100.01,8.38-104.02-.68-4.02-22.87-19.64-22.87-19.64Z" style="fill: #2f4731;"/>
      <path d="M1081.31,364.14s24.68,19.2,28.53,22.55c18.12-14.29,24.23-42.86,24.23-42.86,0,0-18.79-11.39-30.34-28.8-10.87,12.95-22.41,49.11-22.41,49.11Z" style="fill: #e5724e;"/>
      <path d="M1025.16,315.03l12.23,27.01s.9,19.42,3.85,20.31c2.94,.89,5.89-2.01,5.89-2.01,0,0,11.32,20.76,21.28,17.19,9.96-3.57,42.79-29.69,36-45.31-6.79-15.63-24.68-66.07-50.49-56.25-25.81,9.82-38.94,20.53-28.75,39.06Z" style="fill: #f58458;"/>
      <path d="M1014.52,306.1s5.89,17.41,17.43,6.7c11.55-10.71,14.26-26.56,14.26-26.56,0,0,15.4,50.67,71.32,37.95,10.19-41.74,6.34-91.52-37.81-82.37-23.55-29.69-79.7-11.83-63.4,18.53-31.02,1.12-31.25,41.97-1.81,45.76Z" style="fill: #42150f;"/>
      <path d="M1086.97,326.64s-6.11-16.3,5.89-20.32c12-4.02,24.68,28.13,5.66,31.7" style="fill: #f58458;"/>
      <path d="M1203.57,357.23s11.77,76.79-4.53,117.19c-4.98-39.06-29.43-131.71-50.49-144.21,17.66-.22,50.94,16.08,55.02,27.01Z" style="fill: #2f4731;"/>
      <path d="M1051.19,410.35s23.32-.22,24.23,7.81c.91,8.03-6.34,13.17-9.28,9.6-2.94-3.57-14.49-6.25-14.49-6.25,0,0-6.11-4.24-.45-11.16Z" style="fill: #426346;"/>
      <path d="M1179.57,380s-6.57,16.52-16.75,20.54c-10.19,4.02-1.81,18.3,1.58,18.97,3.4,.67,18.79-8.93,19.25-23.44,.45-14.51-3.4-18.98-4.08-16.07Z" style="fill: #426346;"/>
      <path d="M1125.94,303.46s47.41-3.89,49.52-.52c2.11,3.37,4.48,9.87-8.95,9.61-13.43-.26-38.19-1.04-40.83-2.86-2.63-1.82-2.11-5.45,.26-6.23Z" style="fill: #2f4731;"/>
      <path d="M1119.35,409.8c0,1.88-1.55,3.41-3.46,3.41s-3.46-1.53-3.46-3.41,1.55-3.41,3.46-3.41,3.46,1.53,3.46,3.41Z" style="fill: #467eb2;"/>
      <path d="M1121.59,425.65c0,1.88-1.55,3.41-3.46,3.41s-3.46-1.53-3.46-3.41,1.55-3.41,3.46-3.41,3.46,1.53,3.46,3.41Z" style="fill: #467eb2;"/>
      <path d="M1044.86,519.56s15.06,39.73,55.77,61.4c-25.64-7.22-51.29-27.69-55.77-61.4Z" style="fill: #467eb2;"/>
      <path d="M1045.27,547.25s4.48,16.86,27.27,32.51c-16.69-8.43-24.02-12.04-27.27-32.51Z" style="fill: #467eb2;"/>
      <path d="M1007.82,597.82s26.46-14.05,60.65,11.24c-20.35-17.26-38.67-26.89-60.65-11.24Z" style="fill: #467eb2;"/>
      <path d="M1156.48,672.87c10.7-10.66,20.68-56.62,28.19-101.75-14.98,26.63-55.26,85.51-106.77,59.5,13.38,12.25,22.76,24.63,24.69,26.63,5.21,5.36,31.47,37.95,53.89,15.63Z" style="fill: #467eb2;"/>
      <path d="M1350.92,535.87s-4.61-19.39,4.08-27.25c8.68-7.86,9.57-20.27,15.24-20.27s.53,18.17,.53,18.17c0,0,5.56,37.71-9.57,39.66-8.15,1.05-10.28-10.31-10.28-10.31Z" style="fill: #f58458;"/>
      <path d="M1373.77,489.57l-144.24,586.1,7.26,1.22,131.23-524.54,19.58-59.97s-6.1-5.66-13.84-2.81Z" style="fill: #42150f;"/>
      <path d="M1385.25,495.86s-16.61,4.98-14.35,8.73c1.79,2.96,4.71,4.79,11.58,3.89-5.8,3.91-13.72,5.9-16.31,17.03-2.6,11.14-1.53,22.73,9.92,17.16,11.45-5.57,21.31-47.06,9.16-46.81Z" style="fill: #f58458;"/>
      <polygon points="1019.54 946.21 1020.44 902.53 1054.02 911.26 1050.66 935.94 1019.54 946.21" style="fill: #e2ddcf;"/>
      <path d="M1024.41,942.86s-3.05-18.96-.3-19.87c2.75-.9,29.61,2.71,29.92,4.51,.3,1.81-1.53,11.44-1.53,11.44l23.51,21.97s40.6,4.51,40.6,9.03-4.58,17.46-4.58,17.46l-102.88,.9s.61-55.38,4.27-56.59c3.66-1.2,3.36,10.23,3.36,10.23l7.63,.9Z" style="fill: #0c82ed;"/>
      <path d="M1114.46,979.89h-105.17c-.11,5.07-.15,8.43-.15,8.43l102.88-.9s1.24-3.52,2.43-7.52Z" style="fill: #30363a;"/>
      <polygon points="1025.32 940.45 1050.36 970.25 1076 960.92 1052.49 938.95 1025.32 940.45" style="fill: #64baf9;"/>
      <path d="M651.3,1215.96s53.56-86.17,109.84-66.44c91.68-142.22,100.76-114.19,157.04-130.8,56.28-16.61,211.51-87.2,273.24,23.88,26.32,49.83,50.84,107.97,50.84,107.97,0,0,74.44-39.46,139.8,17.64,65.36,57.1,139.8,78.9,148.87,134.96H536.93s10.89-87.19,114.38-87.2Z" style="fill: #a07048;"/>
      <path d="M687.52,694.34s-15.59-48.5,3.12-54.65c18.71-6.15,100.46-1.02,100.46-1.02,0,0,20.44-3.41,19.05,19.81l-1.73,34.49-120.9,1.37Z" style="fill: #2f4731;"/>
      <path d="M703.45,692.63s-4.5-48.5,7.62-52.6c12.12-4.1,59.93-.68,59.93-.68l9.7,53.62-77.25-.34Z" style="fill: #243825;"/>
      <path d="M806.12,658.74s22.36-6.53,28.32,.16c5.96,6.69,46.21,55.68,48.69,63.03,2.48,7.35-16.23,35.43-24.51,35.76-8.28,.33-30.14-32.33-30.14-32.33,0,0-2.32,34.13-14.91,60.58-12.59,26.45-9.77,35.1-9.77,35.1,0,0,5.8,26.13,1.66,29.88-20.37-4.74-81.65-20.9-123.88-3.27-5.8-.82,14.9-17.8,19.04-40.98,4.14-23.19-1.16-64.99-1.16-64.99,0,0-14.91,7.34-18.05,8.16-3.15,.82-23.02-24.33-22.03-32.82,.99-8.49,51.84-50.46,62.6-56.33,10.77-5.88,38.42-1.63,38.42-1.63l45.71-.33Z" style="fill: #b72815;"/>
      <path d="M765.15,718.85c-8.63-3.6-9.29-35.34-9.29-35.34,0,0-2.99,6.22-27.88,6.87-8.63,28.14-55.42,45.15-55.42,45.15l-1.85,3.89c4.67,6.09,9.31,10.78,10.7,10.42,3.15-.82,18.05-8.16,18.05-8.16,0,0,5.3,41.8,1.16,64.99-4.14,23.19-24.84,40.17-19.04,40.98,15.22-6.36,32.92-8.31,50.28-8,.03-.03,.07-.05,.1-.07-12.94-37.3,20.91-97.83,33.19-120.74Z" style="fill: #a31b11;"/>
      <g>
        <path d="M811.93,684.08c0-.14,.01-.24,.01-.24,0,0-.03,.13-.01,.24Z" style="fill: #a31b11;"/>
        <path d="M823.56,671.41c-10.34,13.41-11.53,13.19-11.63,12.67-.13,2.9-1.71,33.57-9.61,35.75l-11.28,15.05s33.85,64.79-12.61,84.42c11.95,11.13,11.95,19.63-2.32,24.21,.99,.53,1.96,1.04,2.9,1.54,11.26,2.19,20.57,4.5,26.45,5.87,4.14-3.76-1.66-29.88-1.66-29.88,0,0-2.81-8.65,9.77-35.1,12.59-26.45,14.91-60.58,14.91-60.58,0,0,21.86,32.66,30.14,32.33,2.61-.1,6.25-2.96,9.95-7.06l1.79-10.51s-29.54,14.07-46.79-68.71Z" style="fill: #a31b11;"/>
      </g>
      <path d="M697.02,811.53s-5.29,7.63-3.26,11.24c2.04,3.61,109.5,10.84,114.18,9.63,1.83-7.63-2.04-12.44-4.27-12.44s-93.01-1.01-106.65-8.43Z" style="fill: #446646;"/>
      <path d="M807.95,832.4c1.18-4.9,0-8.63-1.59-10.68-1.65,1.68-6.41,4.66-20.01,6.47-19.16,2.55-83.58-.82-89.01-16.5-.11-.05-.22-.11-.32-.16,0,0-5.29,7.63-3.26,11.24,2.04,3.61,109.5,10.84,114.18,9.63Z" style="fill: #243825; opacity: .5;"/>
      <path d="M787.34,625.76s-.76,22.73,21.83,34.77c0,0,8.24,30.1-12.52,31.45-20.76,1.35-43.2-25.13-45.79-32.06,8.4-11.29,14.2-34.01,8.55-46.66,10.07-1.2,27.94,12.49,27.94,12.49Z" style="fill: #e5724e;"/>
      <path d="M807.27,587.08s8.49,12.46,4.75,24.57c-2.08,6.73-7.57,20.19-13.06,20.19s-32.49-1.9-38.58-15.94c-6.08-14.04-1.78-32.47-1.78-32.47l48.67,3.66Z" style="fill: #f58458;"/>
      <path d="M759.02,599.21s-10.33-3.97-15.37,4.9c-5.03,8.86,5.17,21.97,19.46,13.3" style="fill: #f58458;"/>
      <path d="M756.01,609.4c0,2.45-1.62,4.43-3.62,4.43s-3.62-1.99-3.62-4.43,1.62-4.43,3.62-4.43,3.62,1.99,3.62,4.43Z" style="fill: #e5724e;"/>
      <g>
        <path d="M798.78,595.95s5.79,10.82,4.59,13.35c-1.19,2.53-6.09,3.53-6.09,3.53" style="fill: #f58458;"/>
        <path d="M798.78,595.95s.89,1.05,1.95,2.8c.27,.43,.55,.91,.83,1.42,.27,.52,.58,1.05,.84,1.64,.56,1.15,1.07,2.42,1.48,3.75,.19,.67,.35,1.36,.43,2.1,.07,.34,.02,.78,0,1.15-.06,.23-.12,.45-.19,.67-.03,.07,0,.06-.09,.21l-.06,.1-.13,.2c-.17,.25-.49,.66-.74,.84-.26,.24-.54,.41-.81,.6-.54,.33-1.08,.57-1.58,.75-1,.36-1.87,.5-2.47,.58-.6,.07-.95,.07-.95,.07,0,0,.32-.14,.86-.39,.54-.26,1.3-.63,2.14-1.14,.42-.26,.84-.56,1.26-.89,.19-.18,.4-.35,.56-.56,.2-.23,.26-.32,.43-.59l.11-.21,.06-.11c-.04,.08,0-.02-.02-.02,0-.09,.02-.18,.05-.26-.04-.27,0-.5-.06-.8-.08-.58-.24-1.2-.43-1.81-.17-.62-.38-1.24-.59-1.85-.22-.61-.43-1.22-.64-1.8-.42-1.18-.82-2.28-1.16-3.22-.68-1.9-1.06-3.21-1.06-3.21Z" style="fill: #ad492d;"/>
      </g>
      <path d="M755.29,580.61s17.25,18.51,45.95,12.64c14.5-3.16,8.55-12.19,8.55-12.19,0,0,23.35,2.41,14.96-17.76-8.4-20.17-43.2,2.71-43.2,2.71,0,0-41.52-2.71-26.26,14.6Z" style="fill: #65150f;"/>
      <path d="M729.77,658.74s11.59-8.33,22.86-.98c5.3,32.33,5.13,61.72,3.64,66.46-1.49,4.74-40.08,55.36-53.99,58.46-14.91-1.96-15.07-32.17-14.41-36.74,.66-4.57,40.74-32.82,40.74-39.52s-2.48-42.94,1.16-47.68Z" style="fill: #446646;"/>
      <path d="M808.77,656.78s8.45-3.43,12.09,5.88c3.64,9.31,14.74,43.11,12.42,70.38-2.32,27.27-9.77,36.58-12.09,33.96-2.32-2.61-12.26-30.7-10.27-40.33,1.99-9.64,4.14-56.33-2.15-69.89Z" style="fill: #446646;"/>
      <path d="M755.11,717.36s42.73,5.22,58.46,1.31c2.65,3.76,3.81,11.43-.66,14.86-4.47,3.43-45.71,1.96-60.29-5.71-1.49-6.04,2.48-10.45,2.48-10.45Z" style="fill: #243825;"/>
      <path d="M736.76,777.6s-31.18,37.34-30.98,39.15c.2,1.81-208.62,242.6-209.23,243.21-.61,.6,4.07,2.2,4.07,2.2,0,0,210.25-241.4,210.25-242.2s36.59-32.6,36.99-36.41c.41-3.81-7.03-7.96-11.1-5.95Z" style="fill: #42150f;"/>
      <path d="M661.03,717.19s-27.82,19.1-31.63,31.51c-3.81,12.41,33.46,40.17,42.57,45.72,9.11,5.55,24.51,11.27,28.16,15.35,3.64,4.08,8.94,11.59,19.38,8.16,10.43-3.43,23.19-13.88,21.86-17.31-1.32-3.43-12.75-6.53-11.59-10.45,1.16-3.92,13.09-9.47,11.43-13.39-1.66-3.92-18.22,3.43-23.35,5.06-5.13,1.63-14.41,6.53-14.41,6.53,0,0-14.24-2.28-23.85-16.16-9.61-13.88-17.89-17.96-17.89-17.96,0,0,16.23-9.8,17.22-13.71,.99-3.92-9.94-23.03-17.89-23.35Z" style="fill: #f58458;"/>
      <path d="M862.26,751.16s7.12-24.33,18.55-26.13c9.77,11.76,24.18,29.72,28.82,29.07,4.64-.65,31.14-38.37,31.14-38.37l12.92,16.17s-27.66,52.09-44.06,54.37c-16.4,2.29-47.37-35.1-47.37-35.1Z" style="fill: #f58458;"/>
      <path d="M714.33,1103.9s5.09-25.29,6.51-31.1c1.43-5.82,6.72-6.22,6.92-3.41,.2,2.81,3.87,2.41,8.14-3.81,4.27-6.22,9.16-16.86,16.49-13.85,7.33,3.01-.61,22.07-.61,22.07,0,0-2.44,5.82,4.68,16.25,7.12,10.43,19.54,19.86,16.28,27.49-3.26,7.63-7.12,12.04-25.44,11.24-18.32-.8-25.85-16.45-28.09-18.66-2.24-2.21-4.68-1.2-4.88-6.22Z" style="fill: #0c82ed;"/>
      <path d="M773.08,1116.39c-.66,.58-8.57,7.07-28.02,4.96-16.38-1.78-26.3-17.32-29.54-23.33-.71,3.48-1.19,5.87-1.19,5.87,.2,5.02,2.64,4.01,4.88,6.22,2.24,2.21,9.77,17.86,28.09,18.66,18.32,.8,22.18-3.61,25.44-11.24,.16-.38,.25-.76,.34-1.15Z" style="fill: #30363a;"/>
      <path d="M751.77,1073.8s7.94-19.06,.61-22.07c-7.33-3.01-12.21,7.63-16.49,13.85-1.33,1.94-2.59,3.25-3.72,4.14l.46,.88c0-.6-1.22,11.24,1.42,15.65,2.65,4.42,7.94,16.05,13.03,19.06,5.02,2.97,23.27,2.61,19.65-2.61-3.32-4-7.28-8.23-10.29-12.64-7.12-10.43-4.68-16.25-4.68-16.25Z" style="fill: #64baf9;"/>
      <path d="M1101.43,320.18c.87,3.43-.03,6.62-2.02,7.11-1.99,.49-4.3-1.9-5.17-5.33-.87-3.43,.03-6.61,2.02-7.1,1.98-.49,4.3,1.9,5.17,5.32Z" style="fill: #e5724e;"/>
      <path d="M1028.79,611.64c-23.11-3.58-25.61,9.06-.98,47.58,24.62,38.51,64.67,52.43,64.67,52.43,0,0-7.55-60.52-12.47-71.2-4.92-10.68-28.23-25.24-51.21-28.8Z" style="fill: #245958;"/>
      <path d="M1144.99,686.4s5.58,35.6,.33,60.52c-5.25,24.92-21.34,82.53-21.34,82.53,0,0-.33-15.86-18.71-23.95-18.38-8.09,24.62-67,24.95-82.21,.33-15.21-24.29-50.81-24.29-50.81,0,0,29.22,33.34,39.06,13.92Z" style="fill: #245958; opacity: .3;"/>
      <path d="M722.67,664.53s-30.2,45.16-54.1,46.14c4.65-10.47,37.5-40.57,54.1-46.14Z" style="fill: #d1291c;"/>
      <path d="M830.2,657.99s-2.32,37.96,33.52,71.99c0,0,6.64-13.09,16.26-8.51-14.27-23.56-49.78-63.48-49.78-63.48Z" style="fill: #d1291c;"/>
      <path d="M752.62,657.76c-1.41-.92-2.82-1.59-4.22-2.07,.74,10.3,2.85,52.8-10.8,71.99-15.26,21.45-40.68,37.86-49.54,17.72-.1,.2-.17,.38-.2,.53-.66,4.57-.5,34.78,14.41,36.74,13.91-3.1,52.5-53.72,53.99-58.46,1.49-4.74,1.66-34.13-3.64-66.46Z" style="fill: #243825; opacity: .3;"/>
      <path d="M817.59,698.56c-.21-10.65-3.27-20.52-5.54-26.43,1.95,19.3,.36,47.31-1.12,54.53-1.99,9.63,7.95,37.72,10.27,40.33,2.27,2.56,9.49-6.36,11.95-32.43-9.01-1.06-15.25-20.65-15.55-36Z" style="fill: #243825; opacity: .3;"/>
      <path d="M756.75,718.98s30.29,5.72,55.89,1.58c1.7,5.03-9.3,11.28-20.4,11.24-24.7-.1-35.29-7.2-35.49-12.81Z" style="fill: #446646; opacity: .6;"/>
      <path d="M754.98,853.81s59.85,42.28,63.05,65c3.2,22.72-17.6,58.38-17.6,58.38,0,0,22.72-52.07,.96-67.84-21.76-15.78-93.78-71-46.41-55.54Z" style="fill: #4185af;"/>
    </g>
  </g>
</svg>