<?xml version="1.0" encoding="UTF-8"?>
<svg id="a" data-name="Слой 1" xmlns="http://www.w3.org/2000/svg" viewBox="0 0 792 415.53">
  <text transform="translate(27.56 372.92) scale(.89 1)" style="fill: #4d59a1; font-family: MinionVariableConcept-Roman, &apos;Minion Variable Concept&apos;; font-size: 117.37px; font-variation-settings: &apos;wght&apos; 400, &apos;opsz&apos; 11;"><tspan x="0" y="0" style="letter-spacing: .05em;">C</tspan><tspan x="86.27" y="0" style="letter-spacing: .02em;">A</tspan><tspan x="159.97" y="0" style="letter-spacing: 0em;">M</tspan><tspan x="267.13" y="0">P</tspan><tspan x="334.73" y="0" style="letter-spacing: .01em;">I</tspan><tspan x="378.04" y="0" style="letter-spacing: 0em;">N</tspan><tspan x="468.18" y="0" style="letter-spacing: 0em;">G </tspan><tspan x="581.79" y="0" style="letter-spacing: 0em;">T</tspan><tspan x="656.79" y="0" style="letter-spacing: .02em;">R</tspan><tspan x="730.97" y="0" style="letter-spacing: .01em;">I</tspan><tspan x="774.27" y="0">P</tspan></text>
  <g>
    <path d="M0,209.01s1.68-.44,4.81-1.26c3.03-.98,7.31-2.57,12.62-4.92,5.38-2.25,11.66-5.46,20.24-7.71,3.98-1.1,8.67-2.1,13.23-3.11,4.6-1.02,9.32-2.07,13.87-3.58,4.64-1.41,8.58-3.59,13.44-6.1,4.7-2.45,9.22-5,14.7-7.57,2.55-1.36,5.6-2.4,8.56-3.55l2.25-.85c.43-.15,.64-.26,1.24-.46l1.09-.33c1.48-.44,2.96-.88,4.45-1.32,6.36-1.82,12.42-3.13,18.17-4.95,5.79-1.81,10.75-3.93,15.44-7.07,2.81-1.68,4.59-3.27,6.85-4.93,2.16-1.84,4.42-3.6,6.51-5.58,4.29-3.85,8.37-8,12.56-12.24l6.62-6.6,6.88-6.02c10.08-8.09,21.38-15.18,29.6-22.12,1.03-1.01,2.25-2.07,3.12-3.03l2.18-2.71c1.5-2.04,3.01-4.19,4.43-6.49,2.92-4.54,6-9.49,10.52-13.99,1.25-1.06,2.5-2.12,3.74-3.17l1.66-1.35,1.69-1.32c2.24-1.8,4.02-3.34,6.2-5.18,4.15-3.56,8.32-7.14,12.58-10.54,2.24-1.68,4.29-3.37,6.78-4.94,1.19-.79,2.32-1.59,3.86-2.31l2.15-1.08,.54-.26,.13-.07c.72-.28,.28-.1,.47-.17l.25-.08,.99-.31c.48-.19,1.71-.46,2.77-.65,1.11-.25,2.04-.24,3.02-.3,1.94-.06,3.84,.17,5.54,.56,3.42,.79,6.11,2.12,8.43,3.49,4.6,2.79,7.94,5.86,10.96,8.8,2.98,2.97,5.57,5.83,7.97,8.52,4.82,5.37,8.82,10.08,12.51,13.73,3.67,3.66,6.91,6.32,9.44,7.89,1.27,.77,2.28,1.35,3.02,1.66,.73,.34,1.11,.51,1.11,.51,0,0-.42-.13-1.21-.37-.81-.22-1.96-.67-3.4-1.31-2.85-1.32-6.79-3.62-11.1-7.02-4.36-3.37-9.25-7.71-14.69-12.68-2.75-2.47-5.67-5.08-8.88-7.66-3.2-2.56-6.64-5.24-10.54-7.2-1.93-.96-3.98-1.74-5.88-2.03-.95-.15-1.85-.19-2.71-.09-.41,.06-.9,.07-1.14,.19-.3,.1-.48,.04-1.26,.38-3.6,1.56-7.51,4.74-11.29,8.06-3.78,3.41-7.53,7.03-11.48,10.84-1.89,1.83-4.21,4.01-6.35,5.81l-1.63,1.36-.93,.78-.67,.61-2.7,2.45c-3.29,3.54-5.8,7.82-8.54,12.53-1.33,2.36-2.88,4.81-4.59,7.32l-3.17,3.92c-1.07,1.18-2.12,2.1-3.18,3.17-10.11,8.71-20.57,15.27-29.64,22.71l-6.96,5.97-6.15,6c-4.25,4.18-8.53,8.45-13.2,12.56-2.27,2.07-4.79,4.06-7.26,6.03-2.7,1.91-5.62,4.08-8.22,5.51l-2,1.19-.5,.3-.25,.15-.36,.21-.15,.07-1.2,.59c-1.61,.74-3.14,1.62-4.82,2.22-3.28,1.35-6.62,2.44-9.92,3.39-6.56,1.84-13.08,3.16-18.75,4.46-1.5,.37-3,.75-4.48,1.11l-1.12,.29-.89,.3-1.98,.66c-2.63,.9-5.29,1.62-7.79,2.81-5,2.01-10.1,4.61-15.03,6.75-2.55,1.08-4.73,2.09-7.47,3.18-1.34,.48-2.67,.96-3.98,1.42-1.34,.42-2.69,.77-4.01,1.15-5.33,1.37-10.46,2.23-15.24,2.9-4.82,.68-9.06,1.23-13.31,2.04-7.96,1.46-14.77,3.96-20.49,5.73-5.67,1.9-10.47,2.94-13.68,3.61-3.26,.46-5,.71-5,.71Z" style="fill: #4d59a1;"/>
    <path d="M137.38,252.14s.52-.53,1.52-1.56c.5-.52,1.12-1.16,1.86-1.92,.82-.72,1.78-1.55,2.86-2.49,4.4-3.71,11.77-8.59,22.02-13.74,5.06-2.64,10.74-5.46,16.57-8.77,5.81-3.32,11.79-7.21,16.79-12.11,1.22-1.24,2.53-2.46,3.54-3.85,1.13-1.41,2.27-2.84,3.43-4.28,1.2-1.46,2.27-2.96,3.61-4.45,1.4-1.49,2.82-3,4.26-4.53,5.92-5.92,13.01-11.5,20.29-17.21,3.65-2.86,7.35-5.74,10.95-8.75,1.82-1.53,3.66-3.07,5.51-4.63,1.88-1.56,3.69-3.12,5.79-4.7,8.08-6.35,16.85-12.04,23.83-18.86l2.61-2.56,2.32-2.7c1.62-1.93,3.26-3.87,4.9-5.83,3.15-3.95,6.84-7.91,10.54-11.93,7.43-7.91,15.01-15.49,22.57-23.62,3.8-4.03,7.64-8.09,11.5-12.18,1.93-2.05,3.87-4.1,5.82-6.16,1.84-2.08,3.68-4.18,5.52-6.27,3.68-4.2,7.38-8.43,11.1-12.68,1.87-2.11,3.75-4.24,5.63-6.36l3.12-3.41c1.06-1.08,1.8-2.09,3.12-3.22,9.8-9.13,20.96-15.3,29.25-22.76,1.14-.89,1.89-1.89,2.86-2.83,.91-.97,1.83-1.84,2.78-3.02,1.9-2.22,3.76-4.49,6.09-6.86,1.17-1.18,2.44-2.39,4.05-3.61,.73-.6,1.82-1.23,2.74-1.81,1.16-.57,2.28-1.17,3.75-1.61,2.88-.99,6.67-1.1,9.7-.49,1.45,.31,2.72,.76,3.99,1.2,1.04,.49,2.08,1,3.1,1.52,6.96,4.31,10.71,9.06,14.77,13.27,4.11,4.56,7.87,9.05,11.61,13.4,3.73,4.38,7.53,8.58,11.56,12.55,4.04,3.96,8.42,7.4,13.34,11.24,2.37,1.77,4.81,3.96,7.21,6.04,2.31,2.14,4.54,4.3,6.57,6.58,4.17,4.54,7.29,9.46,10.19,14.26,1.31,2.41,2.74,4.82,3.91,7.21l1.83,3.58,.85,1.58,.97,1.74c1.29,2.31,2.53,4.7,3.99,6.6l2.08,3.04c.69,1.01,1.62,1.96,2.41,2.95,6.5,7.88,15.28,14.4,24.63,20.58,2.37,1.53,4.73,3.06,7.07,4.58l.89,.57,.72,.47,.42,.31,1.69,1.22c1.11,.8,2.23,1.57,3.41,2.71,4.83,4.17,7.68,8.24,10.92,11.78,3.16,3.55,6.56,6.16,10.84,7.75,1.32,.46,2.66,.98,3.93,1.38l3.55,.83c1.11,.32,2.47,.54,3.81,.77l4,.71c10.79,1.72,22.73,2.91,32.66,7.93,2.17,1.13,4.31,2.25,6.43,3.36,2.11,1.21,4.2,2.4,6.28,3.58,3.97,2.42,7.82,4.78,11.43,7.19,7.17,4.8,13.96,9.35,20.36,13.62,12.79,8.42,24.59,15.18,35.28,19.55,2.71,1.02,5.24,2.06,7.71,2.9,2.5,.79,4.84,1.54,7.02,2.23,4.51,1.07,8.33,2.11,11.57,2.51,3.2,.52,5.69,.96,7.37,1.04,1.61-.11,2.44-.55,2.44-.48-.03-.06-.73,.41-2.43,.63-1.74,.02-4.23-.29-7.51-.62-3.32-.22-7.26-1.04-11.96-1.87-2.29-.58-4.74-1.2-7.37-1.87-2.58-.75-5.24-1.7-8.09-2.63-11.26-4.01-23.84-10.4-37.38-18.36-6.7-4-13.83-8.25-21.34-12.73-3.76-2.21-7.63-4.43-11.62-6.66-2-1.05-4.02-2.12-6.07-3.19-2.17-1.04-4.36-2.09-6.58-3.15-8-3.73-18.57-4.65-29.95-6.04-1.45-.21-2.91-.42-4.38-.63-1.47-.21-2.92-.42-4.55-.82-1.58-.36-3.18-.73-4.78-1.08-1.41-.42-2.69-.88-4.05-1.32l-1.01-.34-.5-.16-.26-.08c-.24-.1,.19,.09-.6-.23l-2.19-1.1c-1.47-.74-2.96-1.47-4.12-2.42-2.61-1.76-4.62-3.73-6.56-5.67-1.73-1.89-3.47-3.79-5.22-5.7l-2.56-2.62c-.85-.91-1.7-1.5-2.53-2.28-.7-.72-1.89-1.52-3.06-2.3l-1.73-1.18-.43-.3c-.13-.09,.39,.26,.05,.04l-.23-.14-.92-.56c-2.47-1.5-4.93-3.01-7.43-4.52-9.92-6.11-19.87-13.33-27.51-22.16-.94-1.11-1.98-2.15-2.83-3.33l-2.55-3.55c-1.84-2.41-3.06-4.67-4.4-6.97l-1.01-1.72-1.07-1.89-1.86-3.45c-1.21-2.33-2.58-4.53-3.87-6.8-5.36-8.95-12.38-16.67-21.8-23.83-4.7-3.6-9.95-7.68-14.39-12-4.43-4.31-8.49-8.77-12.33-13.2-3.86-4.45-7.61-8.84-11.37-12.98-4.07-4.31-7.98-8.58-11.97-10.97-.45-.2-.88-.42-1.3-.65-.33-.07-.66-.22-.88-.28-.37,0-.25-.09-.6,.02-.77,.11-2.98,1.75-4.73,3.56-1.85,1.85-3.69,4.05-5.59,6.24-.87,1.07-2.09,2.29-3.21,3.45-1.17,1.14-2.21,2.41-3.5,3.42-4.89,4.39-10.23,8-15.29,11.6-4.98,3.5-9.89,7.12-13.6,10.51-1,.79-1.99,2.05-2.99,3.04l-1.49,1.59-.37,.4-.19,.19c.34-.39-.01,0,.02-.03l-.73,.81c-1.95,2.16-3.89,4.32-5.82,6.47-3.9,4.28-7.78,8.55-11.63,12.79-1.94,2.11-3.87,4.22-5.78,6.32-1.99,2.03-3.98,4.06-5.96,6.08-3.96,4.04-7.89,8.05-11.78,12.02-7.72,7.94-15.75,15.85-23.26,23.28-3.64,3.72-7.29,7.38-10.66,11.33-1.73,1.93-3.46,3.86-5.17,5.77l-2.76,3-3.01,2.79c-8.09,7.36-17.37,13.1-25.27,18.84-2,1.37-3.96,2.94-5.91,4.43-1.94,1.51-3.87,3-5.78,4.48-3.88,2.99-7.8,5.8-11.59,8.54-7.61,5.46-14.66,10.72-20.69,16.07-1.43,1.35-2.85,2.69-4.24,4-1.38,1.35-2.62,2.86-3.9,4.25-1.29,1.42-2.56,2.82-3.81,4.2-1.23,1.47-2.74,2.74-4.16,4.02-5.81,5.07-12.38,8.85-18.58,12-6.22,3.15-12.12,5.72-17.34,8.13-5.25,2.38-9.8,4.63-13.67,6.69-3.83,2.09-6.95,4.04-9.29,5.74-1.16,.87-2.19,1.63-3.08,2.29-.81,.72-1.49,1.32-2.04,1.81-1.1,.98-1.67,1.48-1.67,1.48Z" style="fill: #4d59a1;"/>
    <path d="M520.65,94.84s.13-.27,.38-.78c.24-.52,.6-1.27,1.3-2.21,1.32-1.89,3.82-4.57,8.03-7.11,4.12-2.61,9.71-5.15,15.47-8.23,1.42-.78,2.84-1.61,4.18-2.52l1-.69,.25-.18c-.18,.12,.09-.08,.13-.11l.5-.41c.67-.55,1.35-1.11,2.05-1.68,2.22-2.14,4.31-4.55,6.1-7.49,1.8-2.92,3.52-6.21,5.73-9.63,.6-.87,1.08-1.67,1.8-2.63,.63-.81,1.26-1.62,1.89-2.44,1.53-1.78,2.97-3.5,5.12-5.22,.47-.43,1.1-.86,1.73-1.28,.6-.43,1.26-.85,2.11-1.24,.76-.4,1.6-.79,2.7-1.08,.53-.15,1.02-.32,1.59-.42,.6-.09,1.23-.15,1.84-.21,1.23-.17,2.53,.06,3.79,.2,1.17,.23,2.25,.6,3.29,.98,.85,.42,1.75,.87,2.52,1.34l1.98,1.43c4.49,3.85,6.85,7.96,9.2,11.87,2.22,3.82,4.48,7.71,6.76,11.65,2.35,3.63,4.92,6.82,8.3,9.61,.84,.7,1.88,1.32,2.8,2,.96,.66,1.83,1.36,2.99,1.94l3.28,1.82,1.54,.85,1.88,.9c4.54,2.15,10.28,4.31,15.72,7.6,1.38,.75,2.67,1.86,3.98,2.8l1.81,1.71,.89,.87c.19,.23-.28-.36,.45,.55l.07,.09,.13,.19,.25,.37,.52,.74c.17,.25,.34,.44,.58,.94,.43,.85,.83,1.73,1.17,2.59,.39,1.4,.73,2.79,.87,3.96,.34,2.39,.59,4.36,1.09,5.33,.08,.09,.14,.18,.19,.28l.07,.15,.03,.08c.22,.26-.3-.32-.21-.23l.08,.09,1.27,1.34c.3,.21,.58,.43,.85,.67,.3,.25,.83,.59,1.23,.89,3.65,2.44,8.42,4.71,13.2,6.91,4.82,2.21,9.81,4.31,14.8,6.76,2.5,1.2,5.09,2.72,7.12,3.95,2.17,1.28,4.3,2.55,6.39,3.84,4.19,2.56,8.33,4.67,12.36,6.96,8.47,4.31,16.48,8.39,23.87,12.15,7.59,3.99,13.89,7.79,19.78,11.01,5.86,3.2,11.02,5.9,15.48,7.86,4.45,1.97,8.18,3.21,10.85,3.72,1.34,.31,2.39,.4,3.11,.43,.72,.06,1.1,.08,1.1,.08,0,0-.37,.03-1.1,.08-.73,.07-1.83,.15-3.25,0-2.85-.19-7.03-.89-11.95-2.44-4.95-1.49-10.78-3.61-17.17-6.35-6.42-2.66-13.58-5.97-21.1-9.25-3.94-1.61-8.06-3.28-12.31-5.02-4.28-1.76-8.6-3.75-13.1-5.71-4.39-2.14-9.19-4.28-13.6-6.62-4.45-2.23-8.91-5.01-13.13-6.86-4.52-2.03-9.59-3.97-14.75-6.11-5.17-2.15-10.5-4.42-15.7-7.83-.67-.47-1.26-.83-1.97-1.39-.73-.59-1.44-1.18-2.13-1.79l-1.32-1.35-.08-.08s-.53-.6-.34-.4l-.21-.3-.41-.6-.76-1.22c-1.58-3.22-1.62-5.75-2.03-7.78-.15-1.05-.41-1.85-.61-2.64-.12-.19-.19-.38-.22-.59,.05-.05-.17-.34-.34-.58l-.54-.74-.26-.37-.14-.18-.07-.09c.68,.85,.15,.2,.29,.38l-.5-.45-.98-.92c-.9-.57-1.55-1.2-2.6-1.77-3.83-2.41-8.79-4.4-14.3-7.05l-1.86-.92c-.89-.46-1.35-.76-2.05-1.14l-3.84-2.2c-1.3-.68-2.48-1.6-3.68-2.45-1.18-.87-2.43-1.67-3.53-2.62-4.57-3.77-7.82-8.26-10.21-12.5-2.1-4.06-4.17-8.07-6.21-12.02-1.94-3.82-4.14-7.36-6.52-9.78-.29-.23-.57-.47-.85-.73-.26-.17-.48-.28-.7-.46-.17-.04-.29-.13-.38-.18-.05,.06-.06-.12-.14-.04-.19-.13-1.81,.41-3.24,1.49-1.49,1-2.92,2.45-4.22,3.75-.68,.7-1.38,1.53-2.06,2.28-.61,.72-1.2,1.43-1.79,2.14-2.4,2.95-4.51,6.05-6.86,9.09-2.36,3.02-5.22,5.93-8.51,8.32-.78,.5-1.54,.99-2.3,1.48l-.56,.36-.42,.28-.32,.17-1.27,.69c-1.7,.9-3.39,1.66-5.03,2.35-6.59,2.75-12.39,4.51-16.75,6.55-4.38,1.98-7.35,4.06-9.01,5.71-1.72,1.63-2.27,2.73-2.33,2.69Z" style="fill: #4d59a1;"/>
    <path d="M423.98,30.14c-29.01-10.16-82.16,73.25-98.82,85.94-9.05,6.9-18.82,10.43-26.25,18.05-7.99,8.2-8.62,18.34-14.38,26.38-5.43,7.58-16.43,11.23-25.02,16.78-12.21,7.89-13.79,17.43-24.21,26.32-4.6,3.93-12.08,7.6-17.72,10.84,15.18,4.6,59.29-19.68,33.41,5.97-12.95,12.83-25.61,28.8-35.44,42.87,18.59,.56,46.78-28.87,55.37-40.33,3.84-5.12,6.43-13.94,13.93-16.59,5.98-2.1,18.9,8.93,17.27-4.79,24.56,1.4,18.61-29.84,36.62-38.05,5.16,7.49-.77,15.04,.31,22.73,.56,4.02,4.93,12.08,5.5,18.77,5.44-2.09,7.7-7.84,11.58-12.39,6.46,1.7,9.56,5.98,8.73,11.09,3.68,.17,11.47-.98,14.58,.2,1.17,.44,10.92,5.47,9.24,5.1,11.18,2.51,6.23,5.68,11.54-3.83,2.71-4.84,2.55-10.02,5.43-14.91,2.43-4.13,15.97-12.01-3.48-11.92-1.62-8.19,.49-17.66,4.83-25.18,5.39-9.35,10.52-8.83,18.32-16.46,4.95-4.84,3.52-12.28,9.24-17.48,7.37-6.69,17.68-6.52,15.13-17.85,30.04-1.66-5.27-16.78-3.98-26.75-10.46,5.76-11.42,16.9-22.14,23.68-14.66,9.27-12.01,8.26-14.89,23.15-1.94,10.01-5.71,12.5-17.04,17.79-12.63,5.89-14.24,7.69-22.33,16.46-2.83,3.07,.34,9.01-7.73,7.42-5.85-1.15-5.82-13.12-5.47-16.36,.55-5.09,4.8-9.08,4.78-13.63-.01-3.91-6.96-3.26-4.78-10.47,1.74-5.77,13.87-13.37,19.07-17.66,10.39-8.58,10.67-10.6,11.75-22.65,7.12-1.63,12.69-4.27,18.02-8.11,1.68-1.21,1.06-4.76,3.26-6.35,2.32-1.67,8.22-3.18,9.36-4.48,6.58-7.46,6.22-22.18,8.06-32.03" style="fill: #4d59a1;"/>
    <path d="M274.74,73.27c-1.93,6.93-13.67,25.28-26.83,29.4-.31,5.15,4.41,7.92,11.31,7.58-.16,6.33-7.55,4.84-9.82,9.01-3.73,6.87-.83,3.62-.1,12.36,.66,7.86,2.15,23.26-1.56,30.28-9.12-1.5-10.15-16.3-20.48-14.86-7.43,1.03-11.66,15.91-15.27,19.78-4.57,4.9-12.41,8.27-16.86,13.28-6.55,7.38-4.38,13.86-8.57,21.47-3.94-4.86-5.44-11.97-8.77-17.75-10.52-.7-24.78,10.99-32.34,16.02-10.79,7.18-20.62,14.22-30.28,22.61,1.78-4.35,1.79-9.92,3.35-14.51-15.7,.53-24.77,15.36-41.67,12.24,11.28-5.63,23.6-11.15,28.15-21.06-14.64-1.81-24.87,4.77-38.32,6.14,26.96-9.39,59.29-15.72,82.49-29.55,19.06-11.36,30.46-26.57,45.42-40.63,13.42-12.62,27.36-20.61,39.09-34.18,6.19-7.17,11.31-13.17,20.31-19.06,7.05-4.62,17.65-8.07,22.47-13.64" style="fill: #4d59a1;"/>
    <path d="M527.44,112.6c4.12-9.75,18.84-11.46,26.79-18.02,2.03-1.67-1.44-5.91,.27-7.41,1.84-1.64,5.81-2.94,7.23-4.67,3.85-4.67,9.25-6.95,11.45-12.55,7.41,13.48-7.43,25.86-3.43,38.85,1.85,6.02,6.79,10.26,9.03,15.57,2.43,5.78-6.6,9.13,6.7,14.59,8.35,3.42,20,.68,28.07,5.37,3.41,1.98,1.62,5.6,5.09,7.92,3.79,2.53,8.06,2.66,12.34,4.73,15.36,7.42,18.31,16.85,31.54,25.5-14.68-3.41-23.35-13.12-36.72-18.16-7.12-2.69-15.16-2.97-22.04-6.31-6.3-3.07-9.25-9.83-14-12.08-6.7-3.16-13.77-.6-20-2.8-5.62-1.98-10.13-8.13-15.26-11.22-10.29-6.19-22.55-9.85-30.44-18.01" style="fill: #4d59a1;"/>
  </g>
</svg>